C:\Users\u0150099\Documents\PredSim_dev\Subjects\test_1\MuscleAnalysis\dummy_motion.mot
version=1
nRows=17
nColumns=32
inDegrees=no
endheader
                time	         pelvis_tilt	         pelvis_list	     pelvis_rotation	           pelvis_tx	           pelvis_ty	           pelvis_tz	       hip_flexion_l	     hip_adduction_l	      hip_rotation_l	       hip_flexion_r	     hip_adduction_r	      hip_rotation_r	        knee_angle_l	        knee_angle_r	       ankle_angle_l	       ankle_angle_r	    subtalar_angle_l	    subtalar_angle_r	         mtp_angle_l	         mtp_angle_r	    lumbar_extension	      lumbar_bending	     lumbar_rotation	          arm_flex_l	           arm_add_l	           arm_rot_l	          arm_flex_r	           arm_add_r	           arm_rot_r	        elbow_flex_l	        elbow_flex_r	
         37.51000000	          0.00000000	          0.00000000	          0.00000000	          0.00000000	          0.00000000	          0.00000000	          0.49255508	          0.37283090	         -0.50094025	         -0.20828976	          0.52169457	         -0.38431992	         -1.08188184	         -0.32075769	          0.29411733	         -0.46922884	          0.05387490	          0.11038652	         -0.15444960	          0.08507806	          0.11117912	         -0.18768066	          0.51827874	         -0.12471934	         -0.12722573	         -0.30972431	         -0.42072377	          0.49574596	         -0.34254917	          0.46561888	          0.43476895	
         37.52000000	          0.00000000	          0.00000000	          0.00000000	          0.00000000	          0.00000000	          0.00000000	          0.11031904	          0.51075141	         -0.37186609	         -0.36475982	          0.17338631	         -0.39259988	         -1.05210068	         -1.42092139	         -0.40562254	          0.32395364	         -0.20611201	         -0.25340238	          0.78969640	          0.41483837	          0.40238878	          0.13237960	          0.43722352	         -0.02007314	         -0.36411593	         -0.19261984	          0.12344926	         -0.18962435	          0.15671070	          0.11035365	          0.39149232	
         37.53000000	          0.00000000	          0.00000000	          0.00000000	          0.00000000	          0.00000000	          0.00000000	         -0.28366574	         -0.46395915	          0.14345002	          0.60258231	         -0.03415824	          0.47367579	         -1.15238603	         -0.03589201	          0.43354091	         -0.30865613	         -0.11993735	         -0.30367625	         -0.21051656	         -0.04395884	         -0.27890868	         -0.33514762	          0.25475983	         -0.13934673	          0.41550273	         -0.01559933	         -0.36872169	          0.03256257	         -0.37096052	          0.07738810	         -0.51075920	
         37.54000000	          0.00000000	          0.00000000	          0.00000000	          0.00000000	          0.00000000	          0.00000000	         -0.10023199	          0.23988315	         -0.11489959	          0.53025865	         -0.43574386	          0.46597516	         -1.26957432	         -0.57460833	          0.36306573	          0.44937239	         -0.49656456	         -0.44786733	         -0.11294131	          0.29175403	         -0.49445867	         -0.05066175	          0.37392831	         -0.38348179	         -0.38244612	         -0.19390307	          0.50433924	          0.04647721	         -0.26561924	          0.36668375	         -0.04873420	
         37.55000000	          0.00000000	          0.00000000	          0.00000000	          0.00000000	          0.00000000	          0.00000000	          0.39825517	         -0.39164193	         -0.08086676	         -0.63867713	          0.49455989	         -0.49571242	         -0.61881220	         -1.49903088	         -0.18994515	          0.52035593	          0.04037871	          0.44833016	         -0.07304915	          0.04176090	         -0.27235736	         -0.38544603	          0.01366146	          0.17613432	         -0.32333601	          0.43368412	          0.01465172	          0.03729106	         -0.23745608	         -0.25066959	         -0.30652332	
         37.56000000	          0.00000000	          0.00000000	          0.00000000	          0.00000000	          0.00000000	          0.00000000	          0.44994962	         -0.09158446	          0.24701669	          0.66633280	          0.30412721	         -0.30305200	         -0.05157826	         -1.14514236	          0.05579274	          0.32403683	         -0.31888760	          0.45739627	         -0.23404527	          0.76461277	         -0.41657004	         -0.41979423	          0.37384541	          0.02067832	         -0.39035255	          0.20228703	         -0.41426475	         -0.28939343	         -0.02500383	          0.03351459	         -0.03897443	
         37.57000000	          0.00000000	          0.00000000	          0.00000000	          0.00000000	          0.00000000	          0.00000000	         -0.50405168	          0.46758340	         -0.27347033	          0.59797430	         -0.23237800	          0.19274292	         -0.10771947	         -0.57965296	          0.15471097	          0.52174523	         -0.44290487	         -0.05383104	         -0.16248371	          0.26084891	         -0.19336235	         -0.05490082	          0.09034018	         -0.51332677	         -0.11593248	         -0.24131232	         -0.23528953	          0.42213652	          0.50344736	          0.12402075	         -0.47712545	
         37.58000000	          0.00000000	          0.00000000	          0.00000000	          0.00000000	          0.00000000	          0.00000000	         -0.15103898	         -0.34848399	          0.14957868	          0.74783996	         -0.22301164	          0.49575675	         -1.20886085	         -1.52224868	          0.50160363	          0.49076754	          0.50945629	         -0.18815111	         -0.26447649	         -0.29908513	         -0.43503252	         -0.30319436	         -0.05928738	          0.01067338	          0.19921638	          0.23283545	         -0.51102454	         -0.46182765	         -0.51593424	         -0.24226621	         -0.02545883	
         37.59000000	          0.00000000	          0.00000000	          0.00000000	          0.00000000	          0.00000000	          0.00000000	          0.24305344	         -0.25676930	          0.45239413	         -0.35393194	         -0.29678055	          0.11117529	         -0.19637445	         -0.82648782	          0.30564307	          0.49622699	          0.37991721	          0.08536190	          0.02683674	          0.65041893	         -0.46698137	         -0.40270451	          0.14821932	         -0.35099891	         -0.31876585	          0.03281120	          0.02451905	         -0.01234427	         -0.06954025	          0.04676269	         -0.05519241	
         37.60000000	          0.00000000	          0.00000000	          0.00000000	          0.00000000	          0.00000000	          0.00000000	          0.57142603	          0.13589113	         -0.12234920	          0.28747097	          0.22808678	         -0.31472512	         -0.01233204	         -1.53795618	          0.32991864	         -0.28309022	          0.47319064	          0.31839208	         -0.18312188	         -0.22808024	         -0.37043622	         -0.42067157	         -0.24438557	         -0.48555964	          0.44195446	         -0.18249634	          0.21366607	         -0.06277899	          0.45440075	         -0.51780354	         -0.04741213	
         37.61000000	          0.00000000	          0.00000000	          0.00000000	          0.00000000	          0.00000000	          0.00000000	         -0.16049817	          0.07964293	          0.28783746	         -0.36849747	         -0.37857534	         -0.26200436	         -0.97833714	         -0.47858921	          0.44246542	         -0.01037632	         -0.29398503	         -0.51253750	          0.48666399	          0.87191971	         -0.46752224	         -0.30745697	         -0.17846033	         -0.05771307	         -0.28094355	          0.42910068	          0.46688540	         -0.41172187	         -0.20055667	         -0.18868107	         -0.17780522	
         37.62000000	          0.00000000	          0.00000000	          0.00000000	          0.00000000	          0.00000000	          0.00000000	         -0.50570082	         -0.46689471	         -0.24225846	          0.01966562	          0.42173117	         -0.51305427	         -0.58410347	         -1.50007383	         -0.43803634	         -0.51388804	         -0.31990676	         -0.25796008	         -0.34064711	         -0.03462880	         -0.35558087	          0.47433864	         -0.19837245	         -0.13182870	         -0.24952865	         -0.05895814	         -0.46189396	          0.29750300	          0.31276785	          0.01284113	         -0.10648813	
         37.63000000	          0.00000000	          0.00000000	          0.00000000	          0.00000000	          0.00000000	          0.00000000	         -0.80279919	         -0.44763248	         -0.11996534	          0.37054240	         -0.17121042	          0.25117758	         -0.45762989	         -0.39055747	          0.44677115	         -0.35395974	         -0.17606073	         -0.11925312	          0.20328726	          0.03823883	         -0.01315702	         -0.16533748	          0.44189842	          0.43714097	         -0.45686788	         -0.23481606	         -0.50350170	          0.01644063	          0.34883702	          0.32184053	          0.15770897	
         37.64000000	          0.00000000	          0.00000000	          0.00000000	          0.00000000	          0.00000000	          0.00000000	          0.35517506	          0.33460539	         -0.39044726	         -0.22626917	          0.41375859	          0.10971643	         -0.11069503	         -1.34915759	          0.08649611	          0.40265596	          0.51142532	          0.49773683	          0.08150687	          0.83907190	         -0.23328859	         -0.06446915	         -0.20498711	         -0.22211719	          0.02420312	          0.44414033	         -0.48520214	          0.31535434	          0.10070606	          0.33542735	         -0.25452258	
         37.65000000	          0.00000000	          0.00000000	          0.00000000	          0.00000000	          0.00000000	          0.00000000	          0.54981549	          0.27892773	         -0.20057498	          0.33298621	          0.39461809	          0.42789561	         -1.26674773	         -1.05760525	          0.18993333	          0.44046703	          0.07256477	         -0.42455369	          0.15543294	          0.63989822	         -0.06121394	         -0.09055419	          0.13401941	          0.14187277	          0.16955488	         -0.11325905	         -0.22728569	         -0.08233313	         -0.27945427	          0.08343713	          0.37446223	
         37.66000000	          0.00000000	          0.00000000	          0.00000000	          0.00000000	          0.00000000	          0.00000000	         -0.31878725	         -0.50920683	          0.46442171	          0.10939745	         -0.04413775	         -0.37171764	         -0.81680573	         -1.03031820	         -0.05287453	          0.20828916	         -0.15221252	          0.13118071	          0.50408937	          0.46574091	         -0.23943553	          0.03442459	          0.20026062	         -0.04588021	         -0.12591937	          0.13168602	         -0.27050043	         -0.27876772	          0.06426058	          0.03965619	          0.02384253	
         37.67000000	          0.00000000	          0.00000000	          0.00000000	          0.00000000	          0.00000000	          0.00000000	         -0.09711723	          0.42814195	         -0.01241680	         -0.64445131	         -0.19501737	         -0.49807154	         -0.49292440	         -1.47989459	          0.22217201	         -0.08268307	          0.40497601	          0.50050141	          0.39144816	          0.54335188	          0.20358933	         -0.46432598	          0.50906398	          0.27863967	          0.50755950	         -0.06461133	          0.07361849	          0.07659421	          0.48622573	         -0.39210460	         -0.47096744	
